<?xml version="1.0" standalone="no"?>
<!DOCTYPE svg PUBLIC "-//W3C//DTD SVG 20010904//EN"
 "http://www.w3.org/TR/2001/REC-SVG-20010904/DTD/svg10.dtd">
<svg version="1.0" xmlns="http://www.w3.org/2000/svg"
 width="512.000000pt" height="512.000000pt" viewBox="0 0 512.000000 512.000000"
 preserveAspectRatio="xMidYMid meet">
<metadata>
Created by potrace 1.14, written by Peter Selinger 2001-2017
</metadata>
<g transform="translate(0.000000,512.000000) scale(0.100000,-0.100000)"
fill="#000000" stroke="none">
<path d="M2678 4466 c-1 -2 -48 -6 -103 -10 -114 -7 -203 -20 -290 -43 -33 -8
-64 -16 -70 -18 -87 -20 -284 -97 -375 -147 -78 -42 -220 -132 -260 -164 -85
-69 -216 -193 -278 -265 -286 -330 -446 -760 -446 -1194 0 -148 10 -252 34
-359 27 -121 -56 103 -135 364 -24 80 -62 224 -84 320 -22 96 -46 193 -54 215
l-14 40 -6 -35 c-4 -19 -10 -46 -12 -60 -17 -76 -23 -270 -12 -377 32 -314
191 -634 372 -753 19 -12 42 -49 69 -107 98 -212 225 -398 377 -552 72 -73 77
-80 39 -56 -78 49 -315 223 -409 300 -74 62 -169 142 -186 160 -11 11 -55 48
-97 82 -85 70 -88 65 -31 -46 93 -178 244 -358 402 -476 160 -121 368 -205
516 -210 63 -2 77 -6 140 -45 188 -116 421 -195 715 -243 104 -17 -528 -10
-690 8 -46 5 -204 17 -252 19 -21 1 -38 -1 -38 -5 0 -19 282 -141 359 -155 12
-3 51 -11 85 -19 171 -40 376 -37 556 6 89 22 231 84 266 117 15 14 42 21 100
26 43 4 88 9 99 11 11 3 34 6 50 9 152 23 323 79 495 163 510 248 876 720 995
1284 5 22 13 74 20 132 37 276 7 569 -87 840 -130 377 -413 735 -748 949 -202
129 -462 229 -685 264 -27 4 -57 9 -65 11 -8 2 -64 6 -125 9 -60 3 -115 7
-122 9 -6 2 -13 2 -15 1z m197 -50 c337 -33 663 -164 930 -371 310 -242 535
-582 635 -960 37 -139 43 -171 56 -310 11 -126 8 -248 -12 -415 -33 -272 -181
-619 -363 -850 -108 -136 -256 -277 -385 -365 -55 -38 -58 -39 -69 -20 -50 93
-238 187 -479 240 -75 16 -76 17 -57 36 37 37 17 99 -31 99 -18 0 -30 5 -30
13 0 7 -9 18 -21 25 -17 11 -25 11 -46 -3 -19 -13 -27 -14 -39 -5 -40 34 -89
-24 -65 -76 6 -14 11 -27 11 -28 0 -7 -119 33 -157 53 -57 29 -74 53 -77 108
-3 56 16 156 44 230 l19 51 -24 47 c-28 56 -34 57 130 -19 139 -64 194 -75
245 -49 55 28 81 76 77 139 -4 51 -3 54 28 68 65 31 70 69 10 74 -52 4 -63 16
-33 36 22 15 29 15 71 0 62 -21 89 -16 98 18 4 17 3 31 -3 34 -7 4 -8 2 -4 -4
15 -25 -14 -10 -38 19 -38 44 -31 137 10 153 11 4 11 0 -1 -18 -14 -21 -14
-25 5 -48 15 -19 36 -29 85 -38 73 -14 88 -32 21 -25 -25 3 -48 1 -51 -5 -3
-5 -3 -10 2 -11 4 0 17 -3 28 -5 70 -16 90 -16 108 4 16 17 18 44 21 223 3
180 6 211 25 264 37 102 54 166 67 265 3 25 8 48 11 53 7 12 -4 8 -44 -14 -55
-31 -73 -49 -73 -76 0 -21 -3 -22 -20 -13 -11 6 -20 20 -20 31 0 16 -4 18 -27
12 -16 -3 -36 -6 -45 -5 -11 0 -24 -13 -34 -33 -21 -44 -84 -86 -182 -121
-138 -48 -191 -76 -228 -116 -41 -46 -52 -72 -65 -153 -15 -87 -56 -125 -152
-139 -29 -5 -55 -16 -67 -29 -35 -37 -59 -165 -41 -219 6 -18 13 -48 16 -65 6
-39 -2 -41 -96 -17 -57 15 -65 15 -96 0 -40 -19 -73 -69 -73 -111 0 -32 13
-55 60 -107 37 -41 67 -102 84 -176 20 -85 14 -116 -29 -163 -43 -48 -42 -71
7 -133 34 -42 66 -142 62 -190 -7 -70 -25 -90 -108 -118 -54 -18 -71 -47 -56
-92 15 -47 72 -120 118 -151 l37 -26 -55 6 c-78 9 -243 44 -250 52 -4 5 -16
21 -28 37 -12 15 -73 83 -136 150 -62 66 -128 137 -146 156 l-32 35 38 17 c22
10 44 18 49 18 6 0 19 14 28 30 19 31 18 48 -4 157 -15 75 -6 113 33 145 68
57 69 58 62 81 -7 25 -32 55 -55 68 -14 7 -16 2 -16 -34 0 -56 -32 -113 -85
-156 -16 -12 -16 -11 -3 15 38 78 24 154 -26 141 -43 -12 -99 -69 -105 -107
-5 -31 -1 -42 30 -79 29 -34 36 -51 36 -84 0 -45 -14 -103 -30 -127 -14 -19
-63 34 -201 218 -55 72 -102 132 -105 132 -12 0 6 -136 26 -200 27 -83 96
-213 154 -288 54 -71 150 -159 229 -213 33 -21 56 -39 51 -39 -17 0 -184 86
-269 138 -123 77 -233 166 -341 278 -90 93 -91 95 -93 146 -1 29 -3 69 -6 88
-2 19 -7 58 -10 85 -4 28 -9 64 -11 80 -3 17 -7 48 -9 70 -5 52 -14 131 -20
175 -12 86 -23 275 -24 433 -1 48 -4 87 -9 87 -13 0 -69 -103 -91 -166 -31
-93 -42 -159 -45 -269 -3 -132 23 -267 79 -410 l7 -20 -14 20 c-9 11 -32 51
-52 89 -103 191 -181 446 -201 654 -6 59 -4 67 26 115 36 59 49 81 144 257 97
179 206 358 295 485 102 147 98 137 52 121 -118 -42 -223 -125 -333 -262 -62
-79 -139 -225 -161 -307 -13 -51 -30 -65 -23 -19 3 15 7 45 10 67 39 292 169
596 361 847 75 97 243 262 329 323 16 11 40 30 54 41 35 29 203 125 283 162
60 28 193 79 228 87 8 3 40 11 70 20 80 22 204 44 290 51 41 3 76 7 78 8 4 5
196 -1 267 -8z m576 -1623 c67 -40 43 -109 -62 -178 -67 -45 -83 -50 -114 -39
-14 6 -14 9 4 28 l21 22 -41 11 c-33 9 -39 8 -35 -3 3 -8 3 -14 1 -14 -8 0
-75 68 -76 77 0 4 -2 16 -4 26 -5 24 28 39 78 36 60 -4 70 -8 56 -25 -9 -12
-3 -14 35 -14 25 0 46 5 46 10 0 6 -5 10 -11 10 -6 0 -1 8 12 19 20 16 21 21
10 34 -7 9 -22 18 -34 21 -12 3 2 3 31 1 29 -2 66 -12 83 -22z m-398 -1329
c-11 -33 -44 -45 -88 -31 -35 11 -58 29 -28 21 12 -3 24 -1 27 5 5 7 14 6 30
-5 21 -13 25 -13 40 1 18 19 20 36 6 53 -5 7 -3 6 6 -2 13 -11 14 -20 7 -42z
m67 -39 c-14 -16 -50 -21 -50 -6 0 5 8 7 19 4 10 -3 22 0 25 6 4 6 10 11 13
11 3 0 0 -7 -7 -15z m-176 -97 c-44 -189 -93 -296 -194 -427 -34 -45 -66 -82
-71 -82 -5 -1 -20 -1 -34 -1 -52 0 -52 2 -11 45 153 162 255 328 310 510 3 9
7 17 10 17 2 0 -2 -28 -10 -62z m125 -60 c16 -111 19 -409 5 -395 -9 9 -12 43
-19 197 -10 222 -11 289 -4 284 4 -2 12 -41 18 -86z m-114 -195 c-19 -71 -32
-100 -77 -180 -38 -67 -43 -71 -79 -75 -22 -2 -39 -2 -39 -1 0 3 18 25 58 71
13 15 30 39 40 55 9 15 20 27 24 27 4 0 8 4 8 8 0 9 70 142 75 142 2 0 -3 -21
-10 -47z"/>
<path d="M2018 4220 c-107 -33 -209 -114 -247 -196 -24 -51 -30 -117 -12 -138
12 -14 18 -9 47 42 36 59 63 86 126 128 56 36 56 30 2 -29 -67 -72 -77 -87
-93 -125 -20 -47 -17 -80 10 -108 l23 -24 41 85 c40 83 89 145 129 167 15 8
12 1 -10 -28 -55 -72 -83 -131 -102 -220 l-9 -41 50 -33 c39 -26 51 -30 58
-19 5 8 9 17 9 21 0 16 55 126 83 167 43 62 113 127 164 152 l43 21 -37 46
c-110 139 -168 166 -275 132z"/>
<path d="M2390 4020 c-26 -7 -30 -6 85 -26 51 -9 105 -28 122 -43 10 -9 43
-36 73 -61 107 -87 130 -121 130 -191 0 -64 22 -84 117 -104 200 -43 227 -65
348 -292 16 -29 34 -53 41 -53 33 0 54 199 28 272 -21 61 -45 82 -158 139
-191 96 -336 205 -336 253 0 25 -37 37 -88 31 -42 -5 -57 -1 -130 37 -68 34
-93 42 -145 44 -34 1 -73 -2 -87 -6z"/>
<path d="M3118 3896 c-10 -7 -21 -28 -24 -45 l-7 -32 34 20 c60 37 151 19 180
-35 12 -22 11 -30 -4 -55 -21 -38 -16 -40 95 -36 75 2 89 -1 110 -19 12 -11
44 -33 71 -48 49 -28 74 -57 83 -97 45 -210 41 -235 -50 -278 -48 -23 -92 -20
-150 9 -48 23 -26 0 27 -29 44 -25 103 -27 152 -6 34 14 35 14 24 -7 -47 -87
-153 -138 -290 -138 -115 0 -186 65 -223 205 -3 11 -3 0 0 -25 8 -70 24 -116
56 -155 37 -44 72 -63 146 -77 132 -26 223 -5 298 70 36 36 94 142 94 171 0 8
12 32 26 52 37 54 44 153 15 229 -12 30 -21 70 -21 88 0 18 -6 47 -14 65 -24
58 -39 64 -176 71 -158 8 -201 17 -249 50 -45 32 -132 66 -164 66 -12 0 -30
-7 -39 -14z"/>
<path d="M2233 3795 c4 -77 19 -89 102 -86 110 3 211 -26 314 -91 40 -26 100
-38 130 -26 l22 8 -32 45 c-87 121 -218 161 -386 119 -63 -16 -66 -16 -92 3
-14 11 -30 34 -35 52 -14 49 -26 37 -23 -24z"/>
<path d="M1893 3603 c-14 -3 -25 -14 -29 -29 -8 -31 -8 -30 41 -38 72 -10 97
-17 126 -32 41 -21 36 -23 -18 -9 -46 12 -63 12 -125 -1 -27 -5 -55 -30 -46
-40 6 -5 19 -8 93 -19 85 -12 186 -45 243 -78 45 -26 35 -31 -14 -7 -65 33
-183 57 -266 56 -99 -2 -126 -19 -151 -102 -19 -62 -28 -191 -14 -196 5 -2 20
32 34 76 14 45 35 89 49 103 24 24 30 25 92 18 37 -3 85 -10 107 -15 22 -5 51
-11 65 -14 59 -12 71 -16 116 -35 26 -12 48 -21 49 -21 1 0 8 14 16 32 19 47
15 137 -9 183 -61 118 -220 192 -359 168z"/>
<path d="M2738 3506 c-20 -7 -58 -26 -85 -42 -72 -43 -102 -52 -147 -42 -51
12 -57 3 -9 -13 60 -20 114 -14 236 27 59 20 89 25 120 20 63 -10 139 -63 179
-124 10 -15 18 -22 18 -16 0 15 -45 82 -83 122 -63 66 -155 94 -229 68z"/>
<path d="M2491 3311 c-12 -8 -10 -12 10 -21 34 -16 59 -60 59 -106 0 -47 -35
-94 -95 -130 -25 -14 -45 -27 -45 -29 0 -7 62 14 105 35 53 25 96 100 89 153
-5 46 -23 85 -42 92 -31 13 -67 15 -81 6z"/>
<path d="M2772 3300 c-55 -23 -92 -64 -136 -150 -25 -48 -65 -112 -87 -140
-32 -41 -38 -54 -28 -61 20 -13 36 -11 72 8 37 19 43 26 96 114 42 70 95 123
140 141 38 15 119 12 170 -6 24 -9 46 -16 50 -16 13 1 -75 73 -112 92 -46 23
-132 32 -165 18z"/>
<path d="M2371 3283 c-55 -27 -79 -113 -45 -161 17 -25 83 -41 137 -33 6 2
-10 9 -37 17 -56 18 -76 34 -76 64 0 27 26 89 47 112 20 22 17 22 -26 1z"/>
<path d="M2390 3248 c-25 -27 -21 -31 18 -17 37 13 69 -1 81 -34 13 -35 2 -50
-30 -43 -31 6 -40 -8 -13 -18 42 -16 67 -2 79 44 7 28 -13 58 -52 78 -33 18
-60 14 -83 -10z"/>
<path d="M1790 3030 c46 -87 159 -152 270 -155 39 -1 76 3 93 12 35 18 35 24
-2 13 -60 -17 -175 22 -288 97 -87 59 -87 59 -73 33z"/>
<path d="M2020 2629 c-92 -50 -144 -113 -142 -170 1 -49 31 -88 107 -139 81
-55 125 -104 125 -141 0 -13 -20 -54 -45 -91 l-45 -67 47 -41 c51 -45 121 -70
167 -61 27 6 33 14 47 56 9 28 15 72 13 99 -3 59 -25 146 -36 146 -4 0 -8 5
-8 11 0 23 -75 102 -145 155 -44 32 -75 63 -79 77 -7 29 14 103 43 153 33 55
29 56 -49 13z"/>
<path d="M1869 2238 c-97 -54 -159 -131 -159 -195 0 -15 12 -66 26 -113 39
-133 39 -206 -1 -246 -39 -40 -25 -119 33 -182 19 -20 29 -29 22 -19 -19 27
-19 107 0 157 10 25 36 76 58 115 l41 69 -3 109 c-3 152 19 195 134 252 48 24
54 37 22 50 -24 10 -33 7 -89 -33 -76 -52 -110 -95 -134 -165 -13 -39 -18 -46
-19 -27 -4 43 1 63 23 108 21 43 107 132 127 132 5 0 10 4 10 8 0 17 -40 9
-91 -20z"/>
<path d="M2112 1857 c88 -111 105 -192 54 -265 -53 -77 -50 -128 10 -184 134
-123 152 -144 159 -183 4 -22 10 -56 14 -75 l7 -34 42 58 c23 33 42 67 42 76
0 31 -39 68 -103 98 -35 17 -68 36 -74 44 -11 13 -11 110 0 158 3 14 13 56 23
95 27 116 11 164 -66 194 -19 8 -61 27 -92 42 l-57 28 41 -52z"/>
</g>
</svg>
